<?xml version="1.0" standalone="no"?>
<!DOCTYPE svg PUBLIC "-//W3C//DTD SVG 20010904//EN"
 "http://www.w3.org/TR/2001/REC-SVG-20010904/DTD/svg10.dtd">
<svg version="1.0" xmlns="http://www.w3.org/2000/svg"
 width="200.000000pt" height="100.000000pt" viewBox="0 0 200.000000 100.000000"
 preserveAspectRatio="xMidYMid meet">

<g transform="translate(0.000000,100.000000) scale(0.100000,-0.100000)"
fill="#000000" stroke="none">
<path d="M373 727 c3 -8 52 -82 109 -165 82 -121 108 -152 126 -152 20 0 10
19 -89 165 -80 118 -118 165 -132 165 -12 0 -17 -5 -14 -13z"/>
<path d="M730 585 c0 -85 0 -158 0 -162 -1 -5 8 -9 20 -11 19 -3 20 1 20 162
0 159 -1 166 -20 166 -19 0 -20 -7 -20 -155z"/>
<path d="M943 715 c-46 -28 -83 -91 -83 -143 0 -66 50 -138 113 -161 45 -17
56 -13 17 7 -56 28 -80 73 -80 151 0 80 22 126 71 153 18 10 27 18 19 18 -8 0
-34 -11 -57 -25z"/>
<path d="M1287 733 c-10 -9 -9 -28 4 -60 l12 -28 7 25 c13 40 11 70 -3 70 -8
0 -17 -3 -20 -7z"/>
<path d="M1449 725 c-14 -8 -32 -28 -39 -44 -20 -49 3 -80 86 -121 90 -44 104
-56 104 -90 0 -32 -17 -49 -63 -61 -30 -8 -30 -8 8 -4 44 5 95 50 95 85 0 30
-49 75 -110 100 -30 12 -63 29 -72 38 -34 30 -17 87 32 105 13 5 13 5 0 6 -8
0 -27 -6 -41 -14z"/>
<path d="M590 700 c-12 -16 -19 -30 -16 -30 2 0 14 14 26 30 12 17 19 30 16
30 -2 0 -14 -13 -26 -30z"/>
<path d="M1118 695 c35 -40 47 -84 40 -156 -6 -59 -31 -97 -79 -121 -40 -21
-23 -24 24 -4 68 28 115 118 101 194 -5 24 -21 51 -49 80 -51 50 -80 57 -37 7z"/>
<path d="M1580 670 c0 -13 7 -20 20 -20 13 0 20 7 20 20 0 13 -7 20 -20 20
-13 0 -20 -7 -20 -20z"/>
<path d="M529 613 c-13 -16 -12 -17 4 -4 9 7 17 15 17 17 0 8 -8 3 -21 -13z"/>
<path d="M1403 484 c-8 -21 13 -42 28 -27 13 13 5 43 -11 43 -6 0 -13 -7 -17
-16z"/>
<path d="M389 433 c-13 -16 -12 -17 4 -4 16 13 21 21 13 21 -2 0 -10 -8 -17
-17z"/>
<path d="M478 366 c-10 -7 -18 -22 -17 -32 0 -14 2 -15 6 -4 3 8 12 23 21 33
18 20 14 22 -10 3z"/>
<path d="M755 350 c-3 -6 1 -7 9 -4 18 7 21 14 7 14 -6 0 -13 -4 -16 -10z"/>
<path d="M1415 349 c-11 -17 1 -21 15 -4 8 9 8 15 2 15 -6 0 -14 -5 -17 -11z"/>
</g>
</svg>
